<svg xmlns="http://www.w3.org/2000/svg" viewBox="0 0 48 48"><path fill="#ff3d00" d="M38,19c-0.4,0-0.7,0-1,0.1c0-0.2,0-0.4,0-0.6c0-3.6-2.9-6.5-6.5-6.5c-1.7,0-3.2,0.7-4.4,1.7C24.7,10.9,21.8,9,18.5,9c-4.7,0-8.5,3.8-8.5,8.5c0,0.5,0.1,1.1,0.1,1.6C6.7,19.5,4,22.4,4,26c0,3.9,3.1,7,7,7c0.4,0,0.7,0,1.1-0.1c0.4,3.4,3.4,6.1,6.9,6.1c3.1,0,5.8-2,6.7-4.9c1.1,1.1,2.6,1.9,4.3,1.9c3.1,0,5.6-2.3,6-5.4c0.6,0.2,1.3,0.4,2,0.4c3.3,0,6-2.7,6-6S41.3,19,38,19z"/><path fill="#fff" d="M30.05,20.05l-2.1-2.1L24,21.9l-3.95-3.95l-2.1,2.1L21.9,24l-3.95,3.95l2.1,2.1L24,26.1l3.95,3.95l2.1-2.1L26.1,24L30.05,20.05z"/></svg>