<svg xmlns="http://www.w3.org/2000/svg" viewBox="0 0 24 24">
  <path fill-rule="evenodd" d="M10.925,1.193C11.116,0.771,11.537,0.5,12,0.5s0.884,0.271,1.075,0.693l1.167,2.578c0.165,0.365,0.463,0.653,0.833,0.806c0.37,0.153,0.784,0.16,1.159,0.019l2.648-0.997c0.434-0.163,0.923-0.058,1.25,0.27c0.328,0.328,0.433,0.817,0.27,1.25l-0.997,2.648c-0.141,0.375-0.134,0.789,0.019,1.159c0.153,0.37,0.441,0.667,0.806,0.833l2.578,1.167C23.229,11.116,23.5,11.537,23.5,12s-0.271,0.884-0.693,1.075l-2.578,1.167c-0.365,0.165-0.653,0.463-0.806,0.833c-0.153,0.37-0.16,0.784-0.019,1.159l0.997,2.648c0.163,0.434,0.058,0.923-0.27,1.25c-0.328,0.328-0.817,0.433-1.25,0.27l-2.648-0.997c-0.375-0.141-0.789-0.134-1.159,0.019c-0.37,0.153-0.667,0.441-0.833,0.806l-1.167,2.578C12.884,23.229,12.463,23.5,12,23.5s-0.884-0.271-1.075-0.693l-1.167-2.578c-0.165-0.365-0.463-0.653-0.833-0.806c-0.37-0.153-0.784-0.16-1.159-0.019l-2.648,0.997c-0.434,0.163-0.923,0.058-1.25-0.27s-0.433-0.817-0.27-1.25l0.997-2.648c0.141-0.375,0.134-0.789-0.019-1.159c-0.153-0.37-0.441-0.667-0.806-0.833l-2.578-1.167C0.771,12.884,0.5,12.463,0.5,12s0.271-0.884,0.693-1.075l2.578-1.167c0.365-0.165,0.653-0.463,0.806-0.833c0.153-0.37,0.16-0.784,0.019-1.159L3.598,5.118c-0.163-0.434-0.058-0.923,0.27-1.25c0.328-0.328,0.817-0.433,1.25-0.27l2.648,0.997C8.141,4.737,8.555,4.73,8.925,4.577c0.37-0.153,0.667-0.441,0.833-0.806L10.925,1.193z" clip-rule="evenodd" opacity=".35" fill="#969696" />
  <path d="M17.006,12.008c0,2.761-2.239,5-5,5c-2.761,0-5-2.239-5-5s2.239-5,5-5C14.767,7.008,17.006,9.248,17.006,12.008" fill="#969696" />
</svg>