<svg xmlns="http://www.w3.org/2000/svg" viewBox="0 0 24 24">
  <circle cx="12" cy="4" r="3" opacity=".35" fill="#969696" />
  <path d="M17,18c0.03,0,0.059,0.008,0.089,0.009L15,14v-2.425c0-0.614,0.457-1.132,1.067-1.208l2.257-0.282C18.121,9.772,18,9.401,18,9c0-0.366,0.106-0.705,0.277-1H5.723C5.894,8.295,6,8.634,6,9c0,0.401-0.121,0.772-0.323,1.085l2.257,0.282C8.543,10.443,9,10.961,9,11.575V14l-2.088,4.009C6.942,18.008,6.97,18,7,18c0.801,0,1.486,0.474,1.806,1.153l1.833-2.634C10.865,16.194,11.236,16,11.633,16h0.735c0.396,0,0.767,0.194,0.994,0.519l1.833,2.633C15.515,18.473,16.2,18,17,18z" fill="#969696" />
  <circle cx="17" cy="20" r="2" opacity=".35" fill="#969696" />
  <circle cx="7" cy="20" r="2" opacity=".35" fill="#969696" />
  <circle cx="4" cy="9" r="2" opacity=".35" fill="#969696" />
  <circle cx="20" cy="9" r="2" opacity=".35" fill="#969696" />
</svg>