<svg xmlns="http://www.w3.org/2000/svg" viewBox="0 0 24 24">
  <path d="M2,17V7c0-1.657,1.343-3,3-3h14c1.657,0,3,1.343,3,3v10c0,1.657-1.343,3-3,3H5C3.343,20,2,18.657,2,17z" opacity=".35" fill="#969696" />
  <path d="M8,10H6c-0.553,0-1-0.448-1-1s0.447-1,1-1h2c0.553,0,1,0.448,1,1S8.553,10,8,10z" fill="#969696" />
  <path d="M19,8c0-0.552-0.447-1-1-1h-6c-0.553,0-1,0.448-1,1c0,0.186,0,1.814,0,2c0,0.552,0.447,1,1,1h6c0.553,0,1-0.448,1-1C19,9.814,19,8.186,19,8z" fill="#969696" />
  <path d="M8,16H6c-0.553,0-1-0.448-1-1s0.447-1,1-1h2c0.553,0,1,0.448,1,1S8.553,16,8,16z" fill="#969696" />
  <path d="M19,14c0-0.552-0.447-1-1-1h-6c-0.553,0-1,0.448-1,1c0,0.186,0,1.814,0,2c0,0.552,0.447,1,1,1h6c0.553,0,1-0.448,1-1C19,15.814,19,14.186,19,14z" fill="#969696" />
</svg>