<svg xmlns="http://www.w3.org/2000/svg" viewBox="0 0 24 24">
  <circle cx="12" cy="12" r="10" opacity=".35" fill="#969696" />
  <path d="M14.806,9.77l7.361-2.103c0.613-0.175,0.918-0.878,0.613-1.438c-0.875-1.609-2.178-2.949-3.758-3.869c-0.502-0.292-1.15-0.102-1.41,0.418L14.375,9.25C14.231,9.537,14.498,9.858,14.806,9.77z" fill="#969696" />
  <path d="M12,11V2C6.383,2,1.847,6.632,2.004,12.284c0.145,5.218,4.495,9.568,9.713,9.712C17.369,22.152,22,17.617,22,12h-9C12.448,12,12,11.552,12,11z" fill="#969696" />
</svg>