<svg xmlns="http://www.w3.org/2000/svg" viewBox="0 0 24 24">
  <path d="M4,19V5c0-1.657,1.343-3,3-3h10c1.657,0,3,1.343,3,3v14c0,1.657-1.343,3-3,3H7 C5.343,22,4,20.657,4,19z" opacity=".35" fill="#969696" />
  <path d="M17,4c0.551,0,1,0.449,1,1v14c0,0.551-0.449,1-1,1H7c-0.551,0-1-0.449-1-1V5c0-0.551,0.449-1,1-1H17 M17,2H7 C5.343,2,4,3.343,4,5v14c0,1.657,1.343,3,3,3h10c1.657,0,3-1.343,3-3V5C20,3.343,18.657,2,17,2L17,2z" fill="#969696" />
  <rect width="14" height="2" x="5" y="8" fill="#969696" />
  <rect width="14" height="2" x="5" y="14" fill="#969696" />
  <rect width="2" height="18" x="11" y="3" fill="#969696" />
</svg>