<svg xmlns="http://www.w3.org/2000/svg" viewBox="0 0 24 24">
  <path d="M4,19V5c0-1.657,1.343-3,3-3h7l6,6v11c0,1.657-1.343,3-3,3H7C5.343,22,4,20.657,4,19z" opacity=".35" fill="#969696" />
  <path d="M16,18h-4c-0.553,0-1-0.448-1-1s0.447-1,1-1h4c0.553,0,1,0.448,1,1S16.553,18,16,18z" fill="#969696" />
  <circle cx="8" cy="17" r="1" fill="#969696" />
  <path d="M16,14h-4c-0.553,0-1-0.448-1-1s0.447-1,1-1h4c0.553,0,1,0.448,1,1S16.553,14,16,14z" fill="#969696" />
  <circle cx="8" cy="13" r="1" fill="#969696" />
  <path d="M14,6V2l6,6h-4C14.895,8,14,7.105,14,6z" fill="#969696" />
</svg>